<svg width="1200" height="760" viewBox="0 0 1200 760" fill="none" xmlns="http://www.w3.org/2000/svg">
  <rect width="1200" height="760" rx="48" fill="#08111F"/>
  <rect x="28" y="28" width="1144" height="704" rx="34" fill="url(#paint0_linear)"/>
  <rect x="72" y="86" width="1056" height="88" rx="22" fill="#0E1A2E" stroke="#1F3A5A"/>
  <circle cx="116" cy="130" r="10" fill="#2DD4BF"/>
  <circle cx="148" cy="130" r="10" fill="#38BDF8"/>
  <circle cx="180" cy="130" r="10" fill="#F59E0B"/>
  <path d="M238 131H532" stroke="#29425F" stroke-width="10" stroke-linecap="round"/>
  <rect x="72" y="214" width="268" height="458" rx="28" fill="#0C1729" stroke="#1E314A"/>
  <rect x="380" y="214" width="430" height="458" rx="28" fill="#0C1729" stroke="#1E314A"/>
  <rect x="850" y="214" width="278" height="458" rx="28" fill="#0C1729" stroke="#1E314A"/>
  <text x="114" y="266" fill="#93C5FD" font-family="monospace" font-size="26">Input Streams</text>
  <text x="422" y="266" fill="#A7F3D0" font-family="monospace" font-size="26">REST API Core</text>
  <text x="892" y="266" fill="#FCD34D" font-family="monospace" font-size="26">Consumers</text>
  <rect x="110" y="306" width="194" height="78" rx="18" fill="#11233D" stroke="#284C74"/>
  <rect x="110" y="408" width="194" height="78" rx="18" fill="#11233D" stroke="#284C74"/>
  <rect x="110" y="510" width="194" height="78" rx="18" fill="#11233D" stroke="#284C74"/>
  <text x="142" y="353" fill="#E2E8F0" font-family="monospace" font-size="24">tracking events</text>
  <text x="150" y="455" fill="#E2E8F0" font-family="monospace" font-size="24">external APIs</text>
  <text x="162" y="557" fill="#E2E8F0" font-family="monospace" font-size="24">field updates</text>
  <rect x="422" y="306" width="346" height="94" rx="20" fill="#10223A" stroke="#1C8E7B"/>
  <rect x="422" y="430" width="346" height="94" rx="20" fill="#10223A" stroke="#2563EB"/>
  <rect x="422" y="554" width="346" height="78" rx="20" fill="#10223A" stroke="#F59E0B"/>
  <text x="468" y="353" fill="#E2E8F0" font-family="monospace" font-size="28">routing + auth</text>
  <text x="458" y="478" fill="#E2E8F0" font-family="monospace" font-size="28">business services</text>
  <text x="444" y="602" fill="#E2E8F0" font-family="monospace" font-size="28">integration workers</text>
  <rect x="888" y="306" width="202" height="88" rx="18" fill="#11233D" stroke="#284C74"/>
  <rect x="888" y="424" width="202" height="88" rx="18" fill="#11233D" stroke="#284C74"/>
  <rect x="888" y="542" width="202" height="88" rx="18" fill="#11233D" stroke="#284C74"/>
  <text x="940" y="357" fill="#E2E8F0" font-family="monospace" font-size="24">web panel</text>
  <text x="934" y="475" fill="#E2E8F0" font-family="monospace" font-size="24">mobile app</text>
  <text x="932" y="593" fill="#E2E8F0" font-family="monospace" font-size="24">ops team</text>
  <path d="M304 345H422" stroke="#38BDF8" stroke-width="8" stroke-linecap="round"/>
  <path d="M304 447H422" stroke="#38BDF8" stroke-width="8" stroke-linecap="round"/>
  <path d="M304 549H422" stroke="#38BDF8" stroke-width="8" stroke-linecap="round"/>
  <path d="M768 345H888" stroke="#2DD4BF" stroke-width="8" stroke-linecap="round"/>
  <path d="M768 471H888" stroke="#2DD4BF" stroke-width="8" stroke-linecap="round"/>
  <path d="M768 593H888" stroke="#2DD4BF" stroke-width="8" stroke-linecap="round"/>
  <text x="72" y="708" fill="#7DD3FC" font-family="monospace" font-size="22">Node.js • TypeScript • REST API • Integrations</text>
  <defs>
    <linearGradient id="paint0_linear" x1="600" y1="28" x2="600" y2="732" gradientUnits="userSpaceOnUse">
      <stop stop-color="#0A1323"/>
      <stop offset="1" stop-color="#09101D"/>
    </linearGradient>
  </defs>
</svg>
